<?xml version="1.0" standalone="no"?>
<!DOCTYPE svg PUBLIC "-//W3C//DTD SVG 20010904//EN"
 "http://www.w3.org/TR/2001/REC-SVG-20010904/DTD/svg10.dtd">
<svg version="1.0" xmlns="http://www.w3.org/2000/svg"
 width="700.000000pt" height="700.000000pt" viewBox="0 0 700.000000 700.000000"
 preserveAspectRatio="xMidYMid meet">
<metadata>
Created by potrace 1.14, written by Peter Selinger 2001-2017
</metadata>
<g transform="translate(0.000000,700.000000) scale(0.100000,-0.100000)"
fill="#000000" stroke="none">
<path d="M1444 6963 c29 -43 50 -100 71 -187 12 -53 14 -503 12 -3261 -2
-1760 -6 -3216 -10 -3235 -24 -107 -52 -190 -78 -233 -24 -40 -26 -48 -12 -43
10 3 32 8 48 11 153 29 255 48 280 52 17 2 41 6 55 9 30 5 426 74 455 78 11 2
40 7 65 12 25 4 48 8 52 8 3 1 9 4 13 8 4 4 8 920 8 2035 1 2051 1 2063 31
1888 3 -16 8 -43 12 -60 23 -109 86 -425 90 -450 3 -16 12 -58 20 -93 7 -34
16 -77 19 -95 3 -17 11 -57 17 -87 7 -30 13 -59 14 -65 0 -5 4 -28 9 -50 4
-22 9 -47 10 -55 2 -8 13 -60 24 -115 11 -55 22 -111 25 -125 3 -14 23 -115
45 -225 23 -110 43 -211 46 -225 3 -14 18 -90 34 -170 16 -80 32 -156 35 -170
2 -14 19 -95 36 -180 17 -85 34 -166 36 -180 7 -34 95 -471 99 -490 2 -8 19
-96 39 -195 20 -99 47 -234 60 -300 41 -203 54 -352 38 -423 l-10 -43 41 6
c49 8 42 7 267 39 96 14 193 28 215 31 48 6 113 15 140 20 11 2 30 4 43 4 19
1 21 5 16 25 -13 52 -7 192 11 301 3 17 50 255 105 530 54 275 101 511 104
525 2 14 25 127 50 252 25 125 47 237 50 250 2 13 20 104 39 203 20 99 38 191
41 205 2 14 7 36 10 50 3 14 8 36 10 50 2 14 11 59 20 100 8 41 18 87 21 103
9 48 15 78 55 277 21 107 43 220 49 250 6 30 12 64 15 75 7 33 65 328 70 358
3 15 7 35 10 45 3 9 7 28 10 42 10 62 49 255 51 258 2 2 3 -850 3 -1893 0
-1043 1 -1898 3 -1899 4 -3 92 5 194 18 22 3 72 8 110 11 39 3 81 8 95 10 14
2 59 7 100 10 41 4 86 8 100 10 14 2 63 7 110 10 46 4 96 9 110 11 14 1 59 6
100 9 87 8 96 11 77 33 -22 25 -47 78 -64 134 -43 147 -42 52 -42 3038 0 2485
2 2845 15 2915 20 107 49 192 79 238 l26 37 -645 0 -645 0 -6 -32 c-3 -18 -7
-40 -9 -48 -1 -8 -8 -40 -14 -70 -6 -30 -25 -129 -42 -220 -18 -91 -45 -234
-62 -318 -16 -84 -32 -165 -34 -180 -3 -15 -17 -85 -31 -157 -14 -71 -27 -141
-29 -155 -5 -25 -62 -321 -89 -460 -8 -41 -17 -88 -19 -104 -4 -24 -17 -86
-31 -151 -1 -5 -6 -32 -10 -60 -10 -56 -9 -50 -18 -90 -4 -16 -9 -41 -11 -55
-2 -14 -14 -72 -25 -130 -11 -58 -23 -121 -26 -140 -3 -19 -8 -42 -10 -50 -2
-8 -7 -29 -9 -46 -3 -17 -13 -66 -21 -110 -9 -43 -18 -90 -21 -104 -5 -28 -23
-121 -30 -160 -4 -21 -40 -206 -59 -300 -3 -14 -7 -38 -10 -55 -3 -16 -8 -41
-10 -55 -10 -49 -15 -75 -20 -100 -2 -14 -9 -50 -15 -80 -6 -30 -15 -77 -20
-105 -10 -54 -10 -54 -44 -230 -13 -66 -32 -163 -42 -214 -10 -52 -19 -91 -21
-85 -4 13 -143 719 -167 844 -2 14 -16 86 -31 160 -15 74 -29 144 -31 155 -2
11 -24 126 -50 255 -25 129 -60 312 -79 405 -19 94 -36 181 -38 195 -3 14 -13
63 -22 110 -9 47 -19 96 -21 110 -3 14 -18 93 -35 175 -16 83 -31 160 -34 172
-2 13 -11 58 -19 100 -9 43 -18 89 -20 103 -3 14 -14 70 -25 125 -11 55 -22
113 -25 128 -3 15 -30 155 -60 310 -30 155 -57 293 -60 307 -2 14 -9 48 -15
75 -6 28 -13 61 -15 75 -6 31 -27 142 -30 155 -2 6 -6 31 -11 58 l-7 47 -649
0 -649 0 24 -37z"/>
</g>
</svg>
