<svg xmlns="http://www.w3.org/2000/svg" height="1600" width="1600">
  <defs>
    <clipPath id="a">
      <path d="M9930 4560l-739.94 2773.73c382.97 148.24 654.89 549.78 668.83 1065.91 19.26 722.79-474.38 1396.26-1104.54 1504.52-165.91 28.32-324.62 14.29-468.69-35.03-400.54-137.1-687.9-546.98-702.05-1078.12-13.69-516.57 234.12-1007.24 605.86-1284.86l-893.59-2493.13L9930 4560"/>
    </clipPath>
  </defs>
  <!-- <path d="M0 1600h1600V0H0z" fill="#80cbd3"/> -->
  <path d="M1324 992l-98.6587-369.8306c51.0627-19.7654 87.3187-73.304 89.1773-142.1214 2.5667-96.372-63.2506-186.168-147.272-200.6026-22.1213-3.776-43.2826-1.9054-62.492 4.6693-53.4053 18.2813-91.72 72.932-93.6066 143.7507-1.8254 68.876 31.216 134.2986 80.7813 171.3146L972.784 931.5974 1324 992" fill="#e1f5f6"/>
  <g clip-path="url(#a)" fill="#fff" transform="matrix(.13333 0 0 -.13333 0 1600)">
    <path d="M7904.53 6686.79c5.12 214.4 178.86 368.71 387.25 333.32 156.24-26.53 357.73-197.55 345.11-364.54 167.37 153.97 489.2-128.71 397.5-356.4 93.9-6.39 226.45-120.06 224.61-262.39-1.85-142.34-100.68-225.33-221.97-204.71l-1195.99 203.05c-193.42 32.87-306.35 184.24-303.64 393.66 2.7 209.41 197.85 360.84 367.13 258.01M9042.86 8656.3c3.8 159.58 133.12 274.43 288.21 248.08 116.27-19.74 266.25-147.03 256.86-271.31 124.55 114.6 364.1-95.8 295.86-265.25 69.88-4.76 168.51-89.36 167.21-195.3-1.4-105.93-74.98-167.7-165.27-152.36l-890.12 151.13c-143.97 24.46-228.02 137.11-226 292.99 2.01 155.86 147.27 268.55 273.25 192.02"/>
  </g>
  <path d="M972.784 931.5894l119.1453-332.4174 85.404-29.2346-119.1453 332.42-85.404 29.232" fill="#ade0e3"/>
  <path d="M1096.5506 398.6227c1.3734-51.4547 21.984-94.3587 53.6347-120.9933-15.9427-.6667-31.2213 1.6146-45.4307 6.4786-53.4053 18.2787-91.72 72.9307-93.6066 143.7494-1.8254 68.8746 31.216 134.2986 80.7813 171.3146l85.404-29.2346c-49.564-37.016-82.6093-102.4374-80.7827-171.3147" fill="#c7eaec"/>
  <path d="M1058.188 902.3574l-85.404 29.232L1324 992l-12.2187-45.844-253.5933-43.7986" fill="#99d7dc"/>
  <path d="M318.3973 1432.6933c-51.564 0-93.352-6.68-93.352-14.96 0-8.2533 41.788-14.9733 93.352-14.9733 51.5974 0 93.3854 6.72 93.3854 14.9733 0 8.28-41.788 14.96-93.3854 14.96M795.196 1348.32c-43.4654 0-78.704-5.8-78.704-12.96 0-7.1627 35.2386-12.9667 78.704-12.9667 43.468 0 78.7026 5.804 78.7026 12.9667 0 7.16-35.2346 12.96-78.7026 12.96M588.4707 1228.508c-43.4654 0-78.704-5.8013-78.704-12.9613 0-7.16 35.2386-12.9654 78.704-12.9654 43.468 0 78.7026 5.8054 78.7026 12.9654 0 7.16-35.2346 12.9613-78.7026 12.9613" fill="#59909b"/>
  <path d="M284.852 1355.56c7.944 8.2267 21.7427 9.12 21.7427 9.12l29.4906-4.7867s16.8814-20 18.992-47.6533c1.2214-16.0027 18.6334-19.6667 29.4334-31.1893 19.328-20.6254 19.62-36.6734 22.2626-64.032 3.436-35.5534-16.9-66.5494-52.1186-78.1227-35.2187-11.572-97.116 10.8093-104.6134 62.0467-8.6573 59.1626 25.3867 69.3933 22.6694 105.016-2.1094 27.6546 3.356 40.4946 12.1413 49.6013" fill="#fff"/>
  <path d="M397.2707 1260.44c-10.032 6.1227-16.5747.0253-17.9054-10.656-1.332-10.6853 6.8027-20.4867 15.7267-30.4373 8.9307-9.952 42.7507-54.144 60.12-40.78 23.4187 18.0173-54.2413 79.6053-57.9413 81.8733" fill="#fff"/>
  <path d="M350.3693 1316.396l.084-.0213 3.3414-.8547.8-8.6013-5.4454-3.3214-2.6066.672-.084.0227-2.608.6667-2.6294 5.3973 5.808 6.8987 3.34-.8587M363.3173 1356.2l6.06-11.3067-15.0613-27.3506-3.2187.828-.0413.0146-.0427.008-3.2186.828 3.5613 30.2987 11.876 6.6933.028.0934.0307-.0534.0546.0267-.028-.08" fill="#211d1d"/>
  <path d="M352.7773 1403.4267c-4.4706-8.2667-7.8346-18.3067-10.4666-22.1067-5.3-7.68-22.464-14.0267-22.464-14.0267l-27.9054-7.8666 16.988-25.3467s40.4614 16.1867 54.048 33.24c4.5174 5.6667 5.8334 15.4267 7.1334 22.2933.7626 4.0267 4.4746 23.6-1.0667 25.6267-6.66 2.4267-11.972-3.8667-16.2667-11.8133" fill="#fff"/>
  <path d="M276.248 1423.2a8.6658 8.6658 0 0 1-1.696-.9333c-5.7533-4.08.6133-14.9734 2.6387-19.4134 3.5346-7.7466 8.4173-14.52 9.3013-23.28 1.2107-12-4.568-41.7466-4.568-41.7466l29.9933-.72s2.4867 36.9866.4134 48.4933c-1.696 9.4267-6.3054 18.6-13.028 25.4133-4.656 4.72-15.168 15.3334-23.0547 12.1867" fill="#fff"/>
  <path d="M395.204 1189.2707c-2.0787 1.112-4.2147 2.0986-6.3547 3.0466-2.1493.9374-4.332 1.7787-6.5386 2.5387-1.6414.5813-3.324 1.1053-4.98 1.5627-.9067-2.1614-1.82-4.3174-2.7654-6.4614l-.0706-.1506c-.576-1.08-1.916-1.4867-2.996-.912l-.1374.072c-2.2373 1.1893-4.504 2.3226-6.7986 3.3893-2.3014 1.0533-4.5907 2.1253-6.924 3.0973-2.332.9787-4.6827 1.8947-7.0547 2.7414-.572.2-1.1547.396-1.732.5973l1.348-4.5c.2547-.88.1253-1.8747-.4467-2.6787-.9933-1.3826-2.912-1.6986-4.2933-.704l-.0427.028c-5.2266 3.7467-11.0093 6.9094-17.0546 9.5547-6.008 2.7467-12.2747 5.0133-18.6027 7.1413-3.168 1.064-6.3693 2.0494-9.588 2.984a274.7218 274.7218 0 0 1-9.7 2.7307c-6.4947 1.78-13.056 3.34-19.668 4.8787 6.8-.1067 13.5627-.8627 20.304-1.7947 3.364-.5147 6.7213-1.0907 10.0693-1.7347 3.3427-.6786 6.668-1.4506 9.984-2.2946 6.6294-1.684 13.1614-3.8294 19.5654-6.4334 3.8333-1.6413 7.6386-3.4346 11.312-5.5213l-.6054 2.14-.0226.076a2.9647 2.9647 0 0 0 .0146 1.676c.4747 1.5747 2.1387 2.4627 3.7134 1.9907 2.6586-.8067 5.0693-1.6867 7.524-2.692 2.4373-.9907 4.8426-2.0494 7.212-3.1667 2.3693-1.1253 4.7266-2.2747 7.012-3.56 1.6-.888 3.1773-1.8147 4.7413-2.7667.944 1.808 1.8893 3.6094 2.8653 5.3987l.1067.1947c.4067.748 1.3093 1.1173 2.144.828 2.3907-.836 4.564-1.7774 6.7693-2.8067 2.1774-1.052 4.2987-2.2027 6.368-3.436 2.0774-1.2147 4.064-2.5733 5.988-4 1.936-1.42 3.7387-3.0013 5.4694-4.632-1.9867 1.3107-4.064 2.456-6.1347 3.5787M387.8493 1232.68c1.168 4.768 5.98 7.6867 10.7494 6.52 4.7693-1.1667 7.6906-5.984 6.5226-10.7467-1.168-4.7733-5.98-7.6906-10.7506-6.528-4.7694 1.172-7.688 5.9854-6.5214 10.7547M402.1667 1216.9067c-3.0907.4266-5.6854.7573-8.04 1.6346-1.1734.4374-2.28.9867-3.3707 1.712-1.1093.7187-2.156 1.6214-3.3907 2.624.1254-3.1586 2.532-6.1453 5.6854-7.2546 1.5573-.5707 3.2253-.7187 4.7973-.5027 1.5667.2293 3.0893.7547 4.3187 1.7867M325.652 1247.9027c1.168 4.7733-1.752 9.5853-6.5187 10.7533-4.772 1.1667-9.584-1.7533-10.7506-6.5227-1.1694-4.7706 1.7506-9.584 6.52-10.7533 4.7693-1.1653 9.5826 1.756 10.7493 6.5227M305.6707 1240.528c.6133-1.4813 1.7213-2.648 3.0026-3.58 1.2974-.9173 2.844-1.5573 4.4907-1.768 3.3093-.472 6.8213 1.06 8.392 3.808-1.5573-.32-2.9067-.64-4.2187-.7653-1.3026-.1387-2.5386-.1134-3.78.04-2.4946.312-4.9493 1.216-7.8866 2.2653" fill="#211d1d"/>
  <path d="M312.568 1227.008c-12.1693 2.9787-19.648 15.2973-16.6667 27.472 2.98 12.168 15.304 19.6427 27.4747 16.664 12.1667-2.976 19.6453-15.304 16.6653-27.468-2.9786-12.1733-15.304-19.6493-27.4733-16.668zm12.2853 50.18c-15.5 3.796-31.1986-5.7267-34.9933-21.2293-3.7947-15.5014 5.728-31.204 21.228-34.9947 15.5027-3.7947 31.2013 5.728 34.996 21.2307 3.7947 15.4986-5.7307 31.1986-21.2307 34.9933M389.9467 1208.0627c-12.168 2.9786-19.644 15.3-16.664 27.472 2.9773 12.168 15.3013 19.648 27.4693 16.6706 12.172-2.9826 19.648-15.3066 16.668-27.4746-2.9787-12.1707-15.3027-19.6467-27.4733-16.668zm12.2853 50.184c-15.5 3.796-31.1987-5.7307-34.9933-21.228-3.7947-15.5067 5.732-31.204 21.2293-34.9974 15.504-3.792 31.2013 5.7254 34.9973 21.2294 3.7934 15.5013-5.7293 31.2-21.2333 34.996" fill="#211d1d"/>
  <path d="M344.6973 1240.4173l-4.8173-3.9306c3.7-4.5414 8.6733-7.68 14.38-9.08 5.668-1.3854 11.496-.9174 16.8507 1.3706l-2.4374 5.7187c-4.1066-1.7493-8.5813-2.1173-12.9346-1.0453-4.3814 1.0693-8.1987 3.4826-11.0414 6.9666M342.4787 1280.336s5.528-22.6747 28.204-21.0133c22.6746 1.6586 6.636 34.284-28.204 21.0133" fill="#211d1d"/>
  <path d="M369.6973 1268.1613c-10.5373 1.9294-16.5866 10.576-17.9506 14.756 17.6866 3.0414 28.6973-6.3933 29.4133-14.24-3.0413-.664-7.7053-1.204-11.4627-.516" fill="#e42c35"/>
  <path d="M567.6973 1101.7147s11.1947 13.8373 5.6387 21.3133c-5.5533 7.472-13.7053 9.4093-25.7413 5.7733-5.624-1.7-18.444-3.5413-31.0614-8.8773-31.88-13.4747-16.724-27.9267-6.8626-27.5627 13.972.5174 15.9293 7.6587 27.184 9.5974 20.136 3.4706 30.8426-.244 30.8426-.244M325.112 1138.112s-9.6213-2.6627-12.9333-9.2787c-3.4-6.7986 9.1826-5.1573 12.988.288 1.6746 2.392 2.2546 4.348 2.2546 4.348s2.4867-8.188 6.856-9.0653c4.3694-.88 6.3227 3.5987 3.8014 6.3347l-2.5227 2.7333s3.9667-3.2653 9.4533-3.4907c4.4547-.1786 8.108.8 5.652 3.8934-1.6546 2.0866-12.38 5.8186-12.38 5.8186l-13.1693-1.5813" fill="#fff"/>
  <path d="M745.2533 1236.044c4.52-2.3307 7.336-8.8907 9.352-13.26 1.4413-3.1227 5.1413-4.484 8.2573-3.0467 3.1214 1.4374 4.4894 5.1347 3.052 8.2574-2.012 4.3746-9.3053 18.8053-18.6026 20.948-5.9454 1.3253-10.0974-.7574-12.2067-2.2574-3.8667-2.7453-7.328-6.4306-9.7453-10.644l9.5346-5.14c2.7147 3.4214 5.2774 7.7654 10.3587 5.1427" fill="#211d1d"/>
  <path d="M734.336 1230.2133c.188.2214.3746.4534.5586.688l-9.5346 5.14c-1.216-2.1146-2.184-4.348-2.7774-6.684-2.1653-8.5186 9.328-2.0186 11.7534.856M802.1173 1046.9587c13.1293-18.8747 29.98-11.516 58.3707 6.0826 0 0 19.0506 10.18 22.4186-11.7573 0 0 9.6867 66.664-57.6533 48.4947 0 0-40.8707-17.328-23.136-42.82" fill="#fff"/>
  <path d="M817.98 1286.1507h-44.4334s-2.672-10.508-2.672-37.1614c0-34.32-54.6093-56.9213-54.6093-104.8853 0-49.7547 38.9373-86.6227 82.18-86.7027v-.0053l.0747.0053.0693-.0053v.0053c43.2467.08 82.18 36.948 82.18 86.7027 0 47.964-58.4493 70.7427-58.4493 105.0627 0 26.648-4.34 36.984-4.34 36.984" fill="#fff"/>
  <path d="M774.0306 1336.2c6.6374.9467 12.9934-11.916 15.4774-24.0147 2.5706-12.48 7.672-28.5426.64-40.3466-2.9014-4.8747-8.7494-5.7867-13.5774-3.1387-6.848 3.764-3.516 14.1147-3.5946 20.5707-.0614 5.42 1.552 12.3653 2.216 22.1253.8386 12.352-8.028 23.8173-1.1614 24.804" fill="#fff"/>
  <path d="M821.8786 1337.24c-5.148 4.2933-17.3866-4.4373-21.0546-16.2293-3.7814-12.1694-10.4414-31.2507-4.6054-43.688 2.4107-5.14 8.1374-6.6227 13.2067-4.4614 7.184 3.0707 4.8827 13.6987 5.5987 20.1174.5933 5.3853-.3294 16.0573-.028 25.836.3786 12.376 12.6293 13.644 6.8826 18.4253" fill="#fff"/>
  <path d="M770.8746 1253.6067h51.7587c18.0893 17.5546-1.4307 56.8173-1.4307 56.8173h-52.0733s-16.348-39.2627 1.7453-56.8173" fill="#211d1d"/>
  <path d="M784.344 1240.4813l13.68-15.2986s35.3-4.428 35.8666-3.4227c-6.8013 8.7613-11.5706 17.612-11.5706 27.4067 0 26.648-4.34 36.984-4.34 36.984h-44.4334s-2.672-10.508-2.672-37.1614c0-2.8693-4.7853-1.1973-8.8826-8.2213-1.8947-7.3587 1.696-14.4453-3.5707-21.3507 5.2547.3454 14.1027 6.5494 14.1027 6.5494l11.82 14.5146M819.4613 1157.9347c.7307-1.82 2.0693-3.336 3.672-4.5254 1.6173-1.1853 3.5973-1.9906 5.6747-2.188 2.0786-.2186 4.196.188 6.008 1.0627 1.8133.8827 3.36 2.156 4.4733 3.768-1.86-.604-3.5547-1.2107-5.2467-1.5493-1.6826-.36-3.324-.4747-4.9413-.312-.3.0306-.6013.08-.9027.124 4.5707.8986 7.5907 5.292 6.7627 9.8853-.836 4.6493-5.2773 7.7347-9.9187 6.8987-4.644-.8307-7.7306-5.276-6.8946-9.9214a8.4577 8.4577 0 0 1 1.3133-3.2426M754.7813 1146.2947c-.0467-1.9614-.7773-3.844-1.86-5.524-1.1053-1.672-2.6787-3.1174-4.5547-4.0307-1.8706-.9307-4-1.284-6.004-1.0973-2.0066.1986-3.9013.852-5.5066 1.972 1.952.0786 3.7573.1066 5.456.38 1.704.2506 3.2813.7133 4.7426 1.4293.2694.1333.5347.284.8014.4333-4.5947-.7533-8.9574 2.312-9.7854 6.9107-.836 4.644 2.2454 9.0867 6.8947 9.9227 4.64.836 9.0813-2.256 9.9173-6.8987.2147-1.2013.168-2.38-.1013-3.4973" fill="#211d1d"/>
  <path d="M814.9146 1182.292c-.4893 2.7133 3.5814 5.7133 9.0854 6.7053 5.508.9894 10.3666-.4066 10.856-3.112.488-2.7106-3.5827-5.7106-9.0907-6.7026-5.504-.992-10.3627.4013-10.8507 3.1093M730.5586 1167.1147c-.484 2.708 3.5814 5.708 9.0854 6.7s10.368-.4027 10.856-3.1147c.488-2.7107-3.5854-5.7107-9.0894-6.7027-5.504-.9866-10.364.404-10.852 3.1174" fill="#fcd8cb"/>
  <path d="M752.824 1103.74c2.852 1.5773 5.832 2.8747 8.8133 3.4107 2.976.5026 5.8787.2533 8.2613-1.0934 1.1907-.656 2.2694-1.5293 3.2267-2.5466.472-.5134.9133-1.0627 1.304-1.6467.376-.5413.8053-1.252.9853-1.6707.12-.2666.284-.5266.492-.7533 1.0467-1.156 2.828-1.24 3.98-.2l.1174.1093c8.9573 8.1294 19.0586 14.872 30.2493 19.2467 2.7933 1.1013 5.6453 2.0573 8.548 2.8907 2.9053.792 5.8667 1.4373 8.8627 1.9613 5.996.956 12.148 1.4453 18.3946.9533-2.9413 1.1267-6.0666 1.768-9.2066 2.2054-3.1494.412-6.34.5906-9.532.484-3.1987-.0627-6.3947-.3974-9.5587-.9547-3.168-.54-6.304-1.2947-9.3707-2.2893-6.1333-1.9827-12.024-4.7627-17.4453-8.24-4.488-2.8587-8.668-6.172-12.52-9.8-.468.5426-.9533 1.0653-1.476 1.5573-1.4213 1.336-3.0867 2.4613-4.9293 3.2173-3.684 1.564-7.88 1.5227-11.34.32-3.516-1.1386-6.512-3.0786-9.152-5.2893-2.6494-2.2027-4.9534-4.7187-7.02-7.388 2.7186 2.0053 5.4613 3.912 8.316 5.516M791.4706 1180.852c0 9.8173-4.9746 17.7773-11.112 17.7773-6.136 0-11.1106-7.96-11.1106-17.7773 0-9.8187 4.9746-17.7773 11.1106-17.7773 6.1374 0 11.112 7.9586 11.112 17.7773" fill="#211d1d"/>
  <path d="M769.428 1183.9507c.9173 8.3386 5.4573 14.6786 10.9306 14.6786 5.6854 0 10.3654-6.8346 11.024-15.6453-2.4653-2.292-5.1653-4.3627-11.024-4.1827-5.048.156-8.404 2.1054-10.9306 5.1494" fill="#e42c35"/>
  <path d="M790.2653 1242.3693c.2627-.0546 22.7347-1.716 32.188-13.552 2.0387-2.64 4.0547-5.5026 7.3587-6.596 2.5586-.8493 7.1053-.9693 7.672 2.4947.504 3.0787-1.668 7.2867-4.3507 11.016-2.6613 3.7027-5.7547 7.0467-9.8133 9.224-9.008 4.8227-19.8787 6.8907-29.968 8.6347 0 0-1.7227.2266-3.9494.1026l-.4493-11.2426c.7893-.0654 1.312-.0814 1.312-.0814" fill="#211d1d"/>
  <path d="M779.7533 1247.9267c-1.0587-4.1587 6.1613-5.2187 9.2-5.476l.4493 11.2426c-3.5973-.196-8.516-1.3053-9.6493-5.7666" fill="#fff"/>
  <path d="M470.32 931.904l36.1627 87.248 191.6013-79.4213 28.3666 68.428 92.3747-38.292-28.3627-68.4293 30.7907-12.7654 28.364 68.4267 92.38-38.2907-28.3667-68.428-30.488-73.56-5.6733-13.684L470.32 931.904" fill="#e42c35"/>
  <path d="M405.0173 1108.0573c-41.012 16.9974-88.04-2.464-105.0426-43.4813-17-41.0107 2.4653-88.0373 43.48-105.0413 41.012-16.9987 88.0413 2.468 105.04 43.484 17.004 41.0093-2.4627 88.04-43.4774 105.0386zM313.252 886.676c-81.252 33.6814-119.8173 126.852-86.1347 208.1053 33.6787 81.252 126.8507 119.8147 208.1027 86.136 81.2547-33.6773 119.816-126.8493 86.136-208.1053-33.68-81.252-126.852-119.816-208.104-86.136" fill="#e42c35"/>
  <path d="M241.9253 1115.3227c17.216.3453 17.5067 36.9093 21.5267 65.6253 2.4467 17.4787 10.768 31.4947 12.1253 34.2653 4.7 9.592 2.668 22.9894-4.552 29.9254-7.2146 6.94-15.3986 7.9546-20.1-1.6347-.812-1.6547-21.1106-29.328-27.1733-58.9853-6.8707-33.5974 1.3253-69.532 18.1733-69.196M562.248 1204.2893c4.172-6.3933 5.844-14.0733 9.024-21.396 3.1907-7.352 49.7773-30.12 49.7773-30.12l-20.36-21.0186c-6.0426 3.944-12.0466 7.9373-18.004 12.0026-9.5213 6.496-19.1293 12.8907-28.3986 19.7427-6.7307 4.976-8.9054 13.2507-10.2494 21.0467-1.1586 6.7186-1.868 13.5866-1.5906 20.4186.336 8.2947 5.7253 11.7867 12.996 6.5214 2.8946-2.0987 5.0666-4.536 6.8053-7.1974" fill="#fff"/>
  <path d="M637.2013 1213.9973c.22-.3453.4187-.7346.5974-1.1666 1.9466-4.7494-.9387-11.1747-2.74-15.5547-3.72-9.052-9.7667-17.592-11.4027-27.3853-1.9867-11.9014 1.8507-41.9534 1.8507-41.9534l-29.9774 1.216s-.0826 37.0814 2.732 48.4294c2.6 10.4853 10.3147 20.9826 17.588 28.804 3.5467 3.816 16.7974 14.7986 21.352 7.6106" fill="#fff"/>
  <path d="M576.1507 1164.664l37.012-9.1453s21.8386-9.5467 11.004-53.1547c-8.6147-34.6653 31.264-58.1573 19.288-106.6187-12.4214-50.2693-64.0747-90.3826-107.788-79.6666v-.0027l-.0747.02-.0733.0187c-43.6734 10.8773-70.6987 70.432-58.2747 120.7026 11.9733 48.464 58.16 50.688 66.728 85.3654 6.656 26.9266 32.1787 42.4813 32.1787 42.4813" fill="#fff"/>
  <path d="M516.432 950.2387s-35.712 5.484-43.0707 15.952c-4.4106 6.276-3.1626 10.296.8014 12.22-3.8614 2.7586-6.88 5.4213-8.1747 7.6773-5.6093 9.7733 1.3653 15.3733 15.0027 10.5093 11.7933-4.2066 35.4413-46.3586 35.4413-46.3586" fill="#fff"/>
  <path d="M544.484 1112.176l.0907-.0067 3.6106-.38 2.6774-8.828-4.8614-4.3-2.8133.296-.0933.0147-2.8174.2933-3.8586 5.2134 4.4573 8.0786 3.608-.3813M549.1453 1155.6133l8.656-10.84-9.5186-30.7933-3.476.364-.0467.004-.0467.008-3.4773.3653-2.9027 32.1014 10.7227 8.7986.0093.0934.0414-.0547.0506.0467-.012-.0934M572.9253 1027.9067c-.0106 4.9106 3.964 8.9 8.8747 8.908 4.9093.0106 8.896-3.9627 8.9067-8.8734.0066-4.9106-3.964-8.8973-8.872-8.9066-4.9147-.0107-8.9014 3.9653-8.9094 8.872M590.6053 1016.024c-3.104-.3253-5.7-.6253-8.2013-.336-1.2413.136-2.448.408-3.6813.8507-1.2467.4333-2.48 1.0586-3.92 1.74.8826-3.04 3.932-5.36 7.2586-5.6814 1.6494-.1853 3.304.072 4.7774.656 1.4653.6027 2.82 1.476 3.7666 2.7707M508.8933 1027.784c-.0106 4.9107-4 8.884-8.9093 8.876-4.9107-.012-8.8827-3.9987-8.8733-8.908.008-4.9107 3.9933-8.8827 8.908-8.8747 4.9093.0107 8.8853 3.9947 8.8746 8.9067M491.26 1015.836c.9493-1.2933 2.308-2.1613 3.7733-2.7573 1.476-.5787 3.132-.828 4.7774-.6387 3.332.336 6.3746 2.6653 7.24 5.708-1.4347-.684-2.668-1.32-3.9134-1.752-1.2306-.4467-2.436-.724-3.6786-.8653-2.4987-.2987-5.0974-.0107-8.1987.3053M592.1387 1003.128c-2.5587-.964-4.8574-2.4067-6.5467-4.3627-1.7093-1.924-2.8947-4.2533-3.564-6.7453-.3467-1.244-.5507-2.5307-.7013-3.8173-.136-1.2547-.1787-2.668-.0827-3.7574.0773-.8866-.3387-1.784-1.148-2.284-1.1453-.7-2.64-.344-3.3427.8027l-.148.2413c-2.8026 4.564-6.4746 9.1614-10.7426 11.8067-2.1414 1.296-4.38 2.0467-6.532 1.9533-1.0867-.0333-2.1534-.2933-3.216-.6893-.2614-.112-.528-.2093-.7907-.3427l-.3253-.1626-.4814-.26c-.408-.248-.84-.5374-1.256-.8894-3.2933-2.6893-4.252-8.1293-3.9586-13.4933.228-5.3987 1.504-11.0813 3.192-16.3107l.0693-.216c.2893-.8933.084-1.9106-.6173-2.6293-1.0107-1.04-2.668-1.068-3.7067-.0573-2.2307 2.1666-4.9307 4.2693-7.664 6.036-2.7427 1.8106-5.6467 3.396-8.7227 4.5146-3.0586 1.144-6.2933 1.8814-9.5906 1.832-3.296 0-6.6254-.8386-9.7107-2.3946 2.6533 2.2093 5.9907 3.7146 9.536 4.304 3.5507.588 7.2333.2986 10.7333-.5267 3.5014-.864 6.8534-2.216 10.024-3.88a62.3263 62.3263 0 0 0 2.1267-1.2147c-.0947.336-.188.6747-.2827 1.0187-.752 2.956-1.356 5.9867-1.6053 9.1267-.2227 3.1266-.1987 6.384.6133 9.6986.7854 3.268 2.484 6.7467 5.4134 9.1454.7053.5853 1.492 1.1186 2.3506 1.6053l.484.2573c.3174.172.4307.208.656.3227.396.1907.816.3533 1.228.516 1.6787.636 3.5094 1.016 5.36 1.0253 3.736.0627 7.2347-1.336 9.9614-3.2386 2.7666-1.9067 4.992-4.2387 6.932-6.692a39.0877 39.0877 0 0 0 1.412-1.9174c.2013.64.416 1.2734.6693 1.8947 1.1667 2.8667 2.9107 5.6 5.3147 7.6107 2.392 2.0133 5.28 3.3186 8.2026 3.82 2.9267.5413 5.86.448 8.68-.0307-2.852-.1987-5.664-.6627-8.2226-1.62M508.6893 1044.1907c2.6907 14.7813 15.6067 26.004 31.168 26.036 15.5627.028 28.5254-11.1454 31.2694-25.9187l-62.4374-.1173" fill="#211d1d"/>
  <path d="M521.436 1064.2813c5.1893 3.7267 11.5453 5.932 18.4213 5.9454 6.876.012 13.2427-2.168 18.4454-5.8747-2.4374-6.672-9.7587-10.004-18.4134-10.02-8.6626-.0173-15.9946 3.2893-18.4533 9.9493" fill="#e42c35"/>
  <path d="M553.6827 1106.12s16.0346 7.7827 14.128 16.9227c-1.904 9.14-8.5134 14.3666-21.012 16.1893-5.844.8493-18.2934 4.6373-32.0387 5.1693-34.7307 1.344-27.02-18.208-17.8827-22.076 12.948-5.4773 17.7427.1667 28.812-2.8613 19.808-5.4227 27.9934-13.344 27.9934-13.344" fill="#fff"/>
</svg>
