<svg xmlns="http://www.w3.org/2000/svg" viewBox="0 0 1200 1200">
  <style>
    .st2{fill:#e23d3a}.st3{fill:#fff}.st4{fill:#231f20}
  </style>
  <!-- <path fill="#7ac4d3" d="M0 0h1200v1200H0z" id="bg"/> -->
  <g id="character">
    <path d="M238.7 1049.5c0 12.4 76.1 22.5 170 22.5s170-10.1 170-22.5-76.1-22.5-170-22.5c-93.8 0-170 10.1-170 22.5z" opacity=".3" fill="#231f20"/>
    <path class="st2" d="M475.6 331.3c1-151 128.5-218.3 272.3-218.3s276.4 62.2 273.4 215.2c0 147.9-135.7 163.2-194.8 203-27.5 18.4-2 100-2 100s-23 15.1-83 15.1-88.4-15.1-88.4-15.1v-6.1c1-139.7 58.1-171.4 112.2-199.9 54.1-28.6 116.3-36.7 116.3-97.9 0-78.5-72.4-96.9-135.7-96.9-65.3 0-81.9 36.7-82.9 101H475.6zm355.5 439.1c0 123-187.5 123-187.5 0 .1-124.2 187.5-124.2 187.5 0z"/>
    <path class="st3" d="M392.5 957.9l89-17.1s27.2-44.7 17-98c-13.2-68.7 61.5-112.4 43-208.4-19.2-99.6-111.3-158.4-197.9-142H343.3C256.7 509.3 192.9 598.1 212 697.7c18.5 96 108.6 105.1 121.8 173.8 10.3 53.4 58.7 86.4 58.7 86.4z"/>
    <path class="st3" d="M372.8 1050.6c-32-6.1-14.9-157.9-14.9-157.9 1.3-16.8 16-29.3 32.7-28 16.8 1.3 29.3 16 28 32.7.1.1-13.7 159.3-45.8 153.2zM438.8 1052.2c-37.9-3.1-1.3-162-1.3-162 3-16.5 18.9-27.5 35.5-24.5 16.5 3 28.1 7.7 25.5 27 .1 0-24.7 162.3-59.7 159.5zM336.2 502.9s-19.5-.1-29.2-10.9c-9.9-11.1 14.7-14.5 24.7-6.2 4.4 3.7 6.5 7.1 6.5 7.1s.5-16.8 8.3-20.7c7.8-3.9 13.8 3.5 10.4 10l-3.4 6.5s5.8-8.2 16.1-11.5c8.3-2.6 15.7-2.7 12.7 4.4-2.1 4.8-20.4 17.4-20.4 17.4l-25.7 3.9z"/>
    <path class="st3" d="M274.3 961c110-42 102.9-118.7 103.9-122 3.7-11.3-2.5-23.3-13.8-27-11.2-3.6-23.3 2.5-27 13.7-.3.9-15.7 65.9-77.7 99.9-5.1 2.8-17.5 17.5-10.9 28.4 6.9 10.9 23.8 7.7 25.5 7zM599.2 761.9c-.4-.1-.9-.2-1.3-.3l2.8-14.5c1.1-5.5-2.6-10.9-8.1-11.9-5.5-1.1-10.9 2.6-12 8.1l-4.7 24.6c-3.2-2.6-7.8-3.1-11.5-.9-4.9 2.8-6.6 9.1-3.7 14l5.7 9.8c-23.7 24-76.9 22.9-98.9 21.4-13.1-.9-24.5 9.1-25.4 22.2-.9 13.1 9 24.5 22.2 25.4 1.2.1 29.3 1.9 60.4-3.8.5-.1 1-.1 1.4-.3 52.2-14.7 70.8-33.8 78.2-56.6 4.1-12.6 7.5-33.2-5.1-37.2z"/>
    <g>
      <path class="st4" d="M439.7 842.4l.1-.1 6.9-1.8 2.5-18-10.8-6.8-5.3 1.5h-.2l-5.4 1.5-5.8 11.2 11.1 14.3zM462.1 924.9l13.4-23.6-27.9-56.6-6.7 1.7v.1h-.1l-6.6 1.8 4.3 63 23.4 13.7.1.2v-.2l.1.1z"/>
    </g>
    <g>
      <ellipse transform="rotate(161.05 447.4266 744.7633)" class="st4" cx="447.4" cy="744.8" rx="20.5" ry="32.8"/>
      <path class="st2" d="M468.3 743.5c3.4 15.1-.7 28.9-10.2 32.2-9.7 3.3-21.6-5.3-28.1-19.6 3.2-5.8 7.7-12 16.2-15 6.8-2.3 14.6-1.6 22.1 2.4z"/>
    </g>
    <g>
      <path class="st4" d="M512 565.6c-3.8 2.7-7.7 5.1-11.6 7.5-3.9 2.4-8 4.5-12.1 6.5-3.1 1.5-6.2 3-9.3 4.2-2.3-4-4.6-8-6.9-11.9l-.2-.3c-1.4-2-4.1-2.4-6-1.1l-.2.2c-4.1 2.9-8.2 5.6-12.4 8.2-4.2 2.6-8.4 5.3-12.7 7.7-4.3 2.5-8.6 4.8-13 7.1-1.1.5-2.1 1.1-3.2 1.6l1.5-9.1c.3-1.8-.2-3.7-1.5-5.1-2.3-2.4-6.1-2.6-8.5-.3l-.1.1c-9.2 8.5-19.7 16.1-30.8 22.7-11 6.8-22.6 12.7-34.4 18.4-5.9 2.8-11.9 5.5-17.9 8.1-6 2.7-12.1 5.2-18.2 7.7-12.2 5-24.6 9.7-37 14.3 13.2-1.9 26.1-5 39-8.4 6.4-1.8 12.8-3.8 19.2-5.8 6.3-2.1 12.6-4.4 18.8-6.9 12.5-4.9 24.7-10.7 36.5-17.3 7-4.1 14-8.5 20.6-13.5l-.7 4.3v.2c-.2 1.1 0 2.2.4 3.3 1.3 2.9 4.8 4.3 7.7 3 5-2.2 9.4-4.5 14-7.1 4.5-2.5 8.9-5.2 13.2-7.9 4.3-2.8 8.6-5.6 12.8-8.6 2.9-2.1 5.7-4.3 8.5-6.5 2.3 3.3 4.6 6.6 6.9 9.8l.3.4c1 1.4 2.8 1.8 4.4 1.1 4.4-2.2 8.4-4.6 12.5-7.1 4-2.6 7.8-5.3 11.5-8.2 3.7-2.9 7.3-6 10.7-9.3 3.4-3.2 6.5-6.7 9.5-10.3-3.7 2.9-7.5 5.6-11.3 8.3zM375.2 768.1c-29.4 10.6-62-4.7-72.6-34.1-10.6-29.4 4.7-62 34.1-72.6 29.4-10.6 62 4.7 72.6 34.1 10.6 29.5-4.7 62-34.1 72.6zm-34.3-95.2c-23.1 8.3-35.1 33.9-26.8 57s33.9 35.1 57 26.8 35.1-33.9 26.8-57c-8.4-23.1-33.9-35.1-57-26.8zM522 715.2c-29.4 10.6-62-4.7-72.6-34.1-10.6-29.4 4.7-62 34.1-72.6 29.4-10.6 62 4.7 72.6 34.1 10.6 29.4-4.7 62-34.1 72.6zM487.7 620c-23.1 8.3-35.1 33.9-26.8 57s33.9 35.1 57 26.8 35.1-33.9 26.8-57c-8.4-23.1-33.9-35.1-57-26.8z"/>
      <path class="st4" d="M406.2 692.4l-10.2-6.7c6.3-9.6 15.3-16.8 26.1-20.7 10.7-3.9 22.2-4.2 33.1-.8l-3.6 11.7c-8.4-2.6-17.2-2.3-25.4.6-8.2 3-15.2 8.5-20 15.9z"/>
      <g>
        <path class="st4" d="M491.5 652.9c-5.6 7.6-3.9 18.3 3.7 23.9 7.6 5.6 18.3 3.9 23.9-3.7 5.6-7.6 3.9-18.3-3.7-23.9-7.6-5.6-18.3-4-23.9 3.7zM531.3 668.1c2-3.4 2.6-7.5 2.5-11.5-.2-4-1.4-8.1-3.7-11.6-2.3-3.5-5.6-6.3-9.2-8-3.7-1.7-7.6-2.5-11.5-2.3 3.3 2.1 6.4 4 9 6.3 2.7 2.2 4.9 4.6 6.7 7.3 3.5 5.5 5.2 12.2 6.2 19.8z"/>
        <g>
          <path class="st4" d="M359.1 702.4c9.2 2.1 15 11.3 12.9 20.5-2.1 9.2-11.3 15-20.5 12.9-9.2-2.1-15-11.3-12.9-20.5 2.1-9.2 11.3-15 20.5-12.9zM339.1 740.1c-4.3-6.4-7.4-12.6-8.3-19-.4-3.2-.3-6.5.2-9.9.5-3.4 1.6-6.9 2.7-10.6-3.1 2.3-5.6 5.6-7.2 9.3-1.6 3.7-2.3 8-1.7 12.1.6 4.2 2.3 8 4.8 11.2 2.7 3 5.8 5.6 9.5 6.9z"/>
        </g>
      </g>
    </g>
  </g>
</svg>
