<svg aria-hidden="true" style="position: absolute; width: 0; height: 0; overflow: hidden;" version="1.1" xmlns="http://www.w3.org/2000/svg" xmlns:xlink="http://www.w3.org/1999/xlink">
<defs>
<symbol id="icon-icq" viewBox="0 0 32 32">
<path fill="#7ebd00" style="fill: var(--color1, #7ebd00)" d="M20.541 0.177c-1.008-0.084-1.968 0.12-2.907 0.623-1.253 0.671-2.147 1.7-2.549 3.040v0.089l-0.047 0.313-0.179-0.313-0.447-0.804c-0.715-1.116-1.608-1.787-2.725-2.099-0.981-0.221-1.787-0.129-2.635 0.32-0.94 0.581-1.475 1.475-1.699 2.727-0.224 1.296 0 2.547 0.669 3.796l0.315 0.448-1.076-0.356c-1.34-0.315-2.592-0.139-3.844 0.533-1.296 0.665-2.099 1.607-2.635 2.905-0.493 1.251-0.448 2.457 0.177 3.573 0.269 0.493 0.672 0.893 1.029 1.163 0.536 0.536 1.207 0.848 2.011 0.981l0.312 0.088-0.669 0.584c-0.627 0.536-0.984 1.204-1.208 1.875-0.224 0.804-0.133 1.609 0.315 2.369 0.227 0.357 0.445 0.671 0.803 0.893 0.357 0.313 0.805 0.537 1.341 0.581 0.984 0.227 2.011 0.224 3.128-0.133l-0.805 1.34-0.224 0.581c-0.447 1.432-0.311 2.68 0.36 3.977 0.313 0.493 0.667 0.94 1.027 1.341 0.533 0.491 1.208 0.803 2.013 1.027 1.339 0.357 2.68 0.315 3.973-0.356 1.253-0.671 2.057-1.747 2.46-3.087l0.043-0.267c0.849 0.937 1.653 1.564 2.549 1.787 0.893 0.269 1.787 0.227 2.592-0.311 0.76-0.447 1.297-1.208 1.565-2.147 0.224-0.984 0.224-1.965 0-3.083 0.447 0.313 0.893 0.533 1.429 0.669 1.431 0.447 2.68 0.4 3.933-0.267 1.205-0.672 2.011-1.744 2.413-3.129 0.357-1.34 0.269-2.636-0.4-3.888l-0.227-0.36c-0.356-0.536-0.716-1.072-1.253-1.429-0.445-0.313-0.98-0.536-1.472-0.76 1.387-0.671 2.368-1.609 2.813-2.816 0.315-0.984 0.227-1.789-0.223-2.593v-0.088c-0.536-0.893-1.249-1.473-2.367-1.787-0.671-0.133-1.429-0.136-2.099-0.091l-1.477 0.313 0.493-1.117c0.445-1.431 0.313-2.816-0.447-4.112l-0.133-0.227c-0.671-1.117-1.653-1.787-2.995-2.143-0.347-0.089-0.688-0.151-1.025-0.177zM19.781 2.063c0.431-0.040 0.867 0.016 1.289 0.173 0.939 0.221 1.609 0.712 2.013 1.472v0.004c0.224 0.447 0.356 0.981 0.356 1.563l-0.133 0.984c-0.179 0.493-0.403 0.937-0.671 1.339l-4.021 4.92c-0.4-0.313-0.849-0.537-1.296-0.76l-0.448-5.053-0.044-1.787 0.043-0.447c0.224-0.893 0.851-1.564 1.653-2.011 0.403-0.224 0.827-0.357 1.259-0.397zM10.604 2.779c0.179-0.005 0.368 0.040 0.547 0.128 0.804 0.224 1.475 0.804 2.011 1.92 0.227 0.448 0.448 0.893 0.537 1.431l0.893 5.276-0.672 0.224-3.977-4.336-0.224-0.445c-0.36-0.805-0.58-1.564-0.491-2.369v-0.003c0.045-0.804 0.357-1.337 0.893-1.651 0.133-0.112 0.303-0.169 0.483-0.175zM26.777 9.489c0.2 0 0.396 0.009 0.597 0.032 0.76 0.091 1.296 0.449 1.564 0.987l0.18 0.577-0.089 0.447c-0.312 0.804-0.984 1.432-2.1 1.923-0.447 0.224-0.937 0.313-1.473 0.4l-5.497 0.671-0.089-0.313-0.091-0.133 0.18-0.223 4.516-3.755 0.533-0.221 0.003-0.003c0.6-0.267 1.18-0.381 1.767-0.388zM6.163 9.733c0.213 0.011 0.432 0.044 0.653 0.1v0.003l1.211 0.489 3.933 2.863c-0.36 0.448-0.58 0.893-0.715 1.34l-6.437 0.804-0.445-0.088c-0.804-0.133-1.343-0.493-1.701-1.16-0.36-0.671-0.356-1.341-0.088-2.013 0.313-0.848 0.893-1.52 1.741-1.876 0.604-0.336 1.208-0.497 1.848-0.461zM15.709 13.32c0.805 0 1.567 0.315 2.059 0.805 0.627 0.627 0.893 1.297 0.893 2.101s-0.267 1.563-0.893 2.099c-0.581 0.581-1.253 0.893-2.057 0.893-0.848 0-1.56-0.313-2.097-0.893-0.581-0.536-0.893-1.293-0.893-2.099 0-0.804 0.312-1.476 0.893-2.101 0.536-0.493 1.249-0.805 2.096-0.805zM26.929 16.76l0.448 0.047c0.672 0.224 1.297 0.624 1.653 1.293 0.448 0.493 0.671 1.164 0.671 1.924l-0.133 0.893c-0.223 0.893-0.76 1.564-1.52 1.92-0.804 0.448-1.609 0.537-2.503 0.227-0.536-0.133-0.893-0.357-1.205-0.715l-4.693-3.891 0.313-0.669 0.133-0.537 5.051-0.447zM18.081 20.024l1.876 1.92 1.16 1.431 0.227 0.449c0.4 0.76 0.624 1.473 0.533 2.323-0.088 0.803-0.356 1.384-0.893 1.608-0.312 0.224-0.669 0.227-1.027 0.18-0.849-0.221-1.52-0.891-2.011-1.964l-0.537-1.477-0.669-3.889 0.757-0.267zM13.255 20.115c0.445 0.223 0.893 0.445 1.387 0.489 0.088 1.52 0.22 3.129 0.443 4.872v1.789l-0.044 0.444c-0.315 0.804-0.851 1.476-1.653 1.833-0.805 0.447-1.653 0.536-2.46 0.313-0.893-0.223-1.564-0.76-1.92-1.475-0.227-0.447-0.405-0.987-0.405-1.52l0.227-1.027c0.088-0.447 0.313-0.893 0.671-1.253z"></path>
</symbol>
<symbol id="icon-search" viewBox="0 0 32 32">
<path d="M31.008 27.231l-7.58-6.447c-0.784-0.705-1.622-1.029-2.299-0.998 1.789-2.096 2.87-4.815 2.87-7.787 0-6.627-5.373-12-12-12s-12 5.373-12 12 5.373 12 12 12c2.972 0 5.691-1.081 7.787-2.87-0.031 0.677 0.293 1.515 0.998 2.299l6.447 7.58c1.104 1.226 2.907 1.33 4.007 0.23s0.997-2.903-0.23-4.007zM12 20c-4.418 0-8-3.582-8-8s3.582-8 8-8 8 3.582 8 8-3.582 8-8 8z"></path>
</symbol>
<symbol id="icon-home2" viewBox="0 0 32 32">
<path d="M16 1l-16 16 3 3 3-3v13h8v-6h4v6h8v-13l3 3 3-3-16-16zM16 14c-1.105 0-2-0.895-2-2s0.895-2 2-2c1.105 0 2 0.895 2 2s-0.895 2-2 2z"></path>
</symbol>
<symbol id="icon-quill" viewBox="0 0 32 32">
<path d="M0 32c4-12 14.469-32 32-32-8.219 6.594-12 22-18 22s-6 0-6 0l-6 10h-2z"></path>
</symbol>
<symbol id="icon-book" viewBox="0 0 32 32">
<path d="M28 4v26h-21c-1.657 0-3-1.343-3-3s1.343-3 3-3h19v-24h-20c-2.2 0-4 1.8-4 4v24c0 2.2 1.8 4 4 4h24v-28h-2z"></path>
<path d="M7.002 26v0c-0.001 0-0.001 0-0.002 0-0.552 0-1 0.448-1 1s0.448 1 1 1c0.001 0 0.001-0 0.002-0v0h18.997v-2h-18.997z"></path>
</symbol>
<symbol id="icon-paste" viewBox="0 0 32 32">
<path d="M22 4h-4v-2c0-1.1-0.9-2-2-2h-4c-1.1 0-2 0.9-2 2v2h-4v4h16v-4zM16 4h-4v-1.996c0.001-0.001 0.002-0.002 0.004-0.004h3.993c0.001 0.001 0.003 0.002 0.004 0.004v1.996zM26 10v-5c0-0.55-0.45-1-1-1h-2v2h1v4h-6l-6 6v8h-8v-18h1v-2h-2c-0.55 0-1 0.45-1 1v20c0 0.55 0.45 1 1 1h9v6h20v-22h-6zM18 12.828v3.172h-3.172l3.172-3.172zM30 30h-16v-12h6v-6h10v18z"></path>
</symbol>
<symbol id="icon-location2" viewBox="0 0 32 32">
<path d="M16 0c-5.523 0-10 4.477-10 10 0 10 10 22 10 22s10-12 10-22c0-5.523-4.477-10-10-10zM16 16.125c-3.383 0-6.125-2.742-6.125-6.125s2.742-6.125 6.125-6.125 6.125 2.742 6.125 6.125-2.742 6.125-6.125 6.125zM12.125 10c0-2.14 1.735-3.875 3.875-3.875s3.875 1.735 3.875 3.875c0 2.14-1.735 3.875-3.875 3.875s-3.875-1.735-3.875-3.875z"></path>
</symbol>
<symbol id="icon-tv" viewBox="0 0 32 32">
<path d="M30.662 9.003c-2.775-0.399-5.731-0.688-8.815-0.851l5.153-5.153-2-2-7.017 7.017c-0.656-0.011-1.317-0.017-1.983-0.017v0l-8-8-2 2 6.069 6.069c-3.779 0.133-7.386 0.454-10.731 0.935-0.86 3.366-1.338 7.086-1.338 10.997s0.477 7.63 1.338 10.997c4.489 0.645 9.448 1.003 14.662 1.003s10.173-0.358 14.662-1.003c0.86-3.366 1.338-7.086 1.338-10.997s-0.477-7.63-1.338-10.997zM26.997 27.331c-3.367 0.43-7.086 0.669-10.997 0.669s-7.63-0.239-10.997-0.669c-0.645-2.244-1.003-4.724-1.003-7.331s0.358-5.087 1.003-7.331c3.366-0.43 7.086-0.669 10.997-0.669s7.63 0.239 10.996 0.669c0.645 2.244 1.004 4.724 1.004 7.331s-0.358 5.087-1.003 7.331z"></path>
</symbol>
<symbol id="icon-wrench" viewBox="0 0 32 32">
<path d="M31.342 25.559l-14.392-12.336c0.67-1.259 1.051-2.696 1.051-4.222 0-4.971-4.029-9-9-9-0.909 0-1.787 0.135-2.614 0.386l5.2 5.2c0.778 0.778 0.778 2.051 0 2.828l-3.172 3.172c-0.778 0.778-2.051 0.778-2.828 0l-5.2-5.2c-0.251 0.827-0.386 1.705-0.386 2.614 0 4.971 4.029 9 9 9 1.526 0 2.963-0.38 4.222-1.051l12.336 14.392c0.716 0.835 1.938 0.882 2.716 0.104l3.172-3.172c0.778-0.778 0.731-2-0.104-2.716z"></path>
</symbol>
<symbol id="icon-list" viewBox="0 0 32 32">
<path d="M0 0h8v8h-8zM12 2h20v4h-20zM0 12h8v8h-8zM12 14h20v4h-20zM0 24h8v8h-8zM12 26h20v4h-20z"></path>
</symbol>
<symbol id="icon-svelte" viewBox="0 0 32 32">
<path fill="#ff3e00" style="fill: var(--color1, #ff3e00)" d="M27.573 4.227c-1.779-2.559-4.705-4.213-8.016-4.213-1.867 0-3.611 0.526-5.093 1.437l0.042-0.024-7.467 4.747c-2.002 1.268-3.42 3.303-3.846 5.682l-0.008 0.051c-0.093 0.482-0.146 1.037-0.146 1.604 0 1.526 0.385 2.962 1.063 4.216l-0.023-0.047c-0.616 0.911-1.060 1.989-1.26 3.151l-0.007 0.049c-0.089 0.48-0.141 1.031-0.141 1.595 0 1.982 0.632 3.816 1.706 5.312l-0.019-0.027c1.787 2.562 4.721 4.218 8.041 4.218 1.856 0 3.591-0.517 5.069-1.416l-0.043 0.024 7.467-4.747c1.996-1.27 3.41-3.305 3.832-5.682l0.008-0.051c0.092-0.479 0.144-1.031 0.144-1.594 0-1.524-0.384-2.959-1.061-4.213l0.023 0.047c0.888-1.376 1.416-3.058 1.416-4.862 0-1.972-0.631-3.797-1.702-5.285l0.018 0.027zM13.76 28.173c-0.446 0.121-0.958 0.19-1.486 0.19-2.007 0-3.78-1.001-4.848-2.531l-0.013-0.019c-0.867-1.2-1.187-2.68-0.933-4.147l0.147-0.707 0.133-0.44 0.4 0.267c0.88 0.667 1.867 1.147 2.92 1.467l0.267 0.093-0.027 0.267c-0.027 0.373 0.080 0.787 0.293 1.107 0.44 0.627 1.2 0.933 1.933 0.733 0.16-0.053 0.32-0.107 0.453-0.187l7.44-4.747c0.373-0.24 0.613-0.6 0.707-1.027 0.080-0.44-0.027-0.893-0.267-1.253-0.44-0.613-1.2-0.893-1.933-0.707-0.16 0.053-0.333 0.12-0.467 0.2l-2.813 1.787c-0.862 0.521-1.904 0.829-3.017 0.829-2.001 0-3.769-0.995-4.837-2.516l-0.013-0.019c-0.637-0.883-1.020-1.986-1.020-3.179 0-0.342 0.031-0.677 0.091-1.001l-0.005 0.034c0.27-1.474 1.138-2.705 2.338-3.454l0.022-0.013 7.427-4.747c0.467-0.293 0.973-0.507 1.52-0.667 2.4-0.627 4.933 0.32 6.347 2.347 0.637 0.885 1.019 1.992 1.019 3.187 0 0.595-0.095 1.168-0.27 1.705l0.011-0.039-0.133 0.44-0.387-0.267c-0.839-0.618-1.814-1.118-2.863-1.448l-0.070-0.019-0.267-0.080 0.027-0.267c0.027-0.387-0.080-0.8-0.293-1.12-0.44-0.627-1.2-0.893-1.933-0.707-0.16 0.053-0.32 0.107-0.453 0.187l-7.453 4.787c-0.373 0.253-0.613 0.6-0.693 1.040-0.080 0.427 0.027 0.893 0.267 1.24 0.427 0.627 1.2 0.893 1.92 0.707 0.173-0.053 0.333-0.107 0.467-0.187l2.84-1.813c0.467-0.307 0.987-0.533 1.52-0.68 2.413-0.627 4.933 0.32 6.347 2.36 0.867 1.2 1.2 2.68 0.96 4.133-0.264 1.47-1.122 2.7-2.312 3.454l-0.021 0.012-7.44 4.733c-0.445 0.274-0.958 0.505-1.5 0.668l-0.046 0.012z"></path>
</symbol>
<symbol id="icon-themighty" viewBox="0 0 32 32">
<path fill="#d0072a" style="fill: var(--color2, #d0072a)" d="M25.571 0.001h-5.909l-3.595 18.649-3.655-18.649h-5.937c0.288 0.292 0.445 0.845 0.52 1.429v28.28c0 0.828-0.14 1.844-0.567 2.289 1.352-0.285 3.076-0.555 4.552-0.815v-18.685l3.319 16.5c0.093 0.613 0.18 1.445-0.028 1.597 1.129-0.172 2.259-0.336 3.392-0.488-0.14-0.213-0.085-0.869-0.007-1.415l3.272-16.495v17.46c1.405-0.164 3.155-0.32 4.627-0.465l0.016-0.011c-0.432-0.437-0.573-1.467-0.573-2.299v-24.584c0-0.836 0.14-1.861 0.573-2.301z"></path>
</symbol>
<symbol id="icon-question" viewBox="0 0 17 28">
<path d="M11 19.625v3.75c0 0.344-0.281 0.625-0.625 0.625h-3.75c-0.344 0-0.625-0.281-0.625-0.625v-3.75c0-0.344 0.281-0.625 0.625-0.625h3.75c0.344 0 0.625 0.281 0.625 0.625zM15.937 10.25c0 2.969-2.016 4.109-3.5 4.937-0.922 0.531-1.5 1.609-1.5 2.063v0c0 0.344-0.266 0.75-0.625 0.75h-3.75c-0.344 0-0.562-0.531-0.562-0.875v-0.703c0-1.891 1.875-3.516 3.25-4.141 1.203-0.547 1.703-1.062 1.703-2.063 0-0.875-1.141-1.656-2.406-1.656-0.703 0-1.344 0.219-1.687 0.453-0.375 0.266-0.75 0.641-1.672 1.797-0.125 0.156-0.313 0.25-0.484 0.25-0.141 0-0.266-0.047-0.391-0.125l-2.562-1.953c-0.266-0.203-0.328-0.547-0.156-0.828 1.687-2.797 4.062-4.156 7.25-4.156 3.344 0 7.094 2.672 7.094 6.25z"></path>
</symbol>
<symbol id="icon-videocam" viewBox="0 0 24 24">
<path d="M17.016 10.5l3.984-3.984v10.969l-3.984-3.984v3.516q0 0.422-0.305 0.703t-0.727 0.281h-12q-0.422 0-0.703-0.281t-0.281-0.703v-10.031q0-0.422 0.281-0.703t0.703-0.281h12q0.422 0 0.727 0.281t0.305 0.703v3.516z"></path>
</symbol>
<symbol id="icon-animation" viewBox="0 0 24 24">
<path d="M15 2.016q-2.016 0-3.68 1.031t-2.555 2.719q-1.969 1.078-3 3-1.688 0.891-2.719 2.555t-1.031 3.68q0 1.453 0.539 2.719t1.5 2.227 2.227 1.5 2.719 0.539q2.016 0 3.68-1.031t2.555-2.719q1.969-1.078 3-3 1.688-0.891 2.719-2.555t1.031-3.68q0-1.453-0.539-2.719t-1.5-2.227-2.227-1.5-2.719-0.539zM9 20.016q-1.359 0-2.508-0.68t-1.828-1.828-0.68-2.508q0-0.844 0.281-1.617t0.75-1.383q0 1.453 0.539 2.719t1.5 2.227 2.227 1.5 2.719 0.539q-0.609 0.469-1.383 0.75t-1.617 0.281zM12 17.016q-1.359 0-2.508-0.68t-1.828-1.828-0.68-2.508q0-0.844 0.281-1.617t0.75-1.383q0 1.453 0.539 2.719t1.5 2.227 2.227 1.5 2.719 0.539q-0.609 0.469-1.383 0.75t-1.617 0.281zM16.688 13.688q-0.844 0.328-1.688 0.328-1.359 0-2.508-0.68t-1.828-1.828-0.68-2.508q0-0.844 0.328-1.688 0.844-0.328 1.688-0.328 1.359 0 2.508 0.68t1.828 1.828 0.68 2.508q0 0.844-0.328 1.688zM18.984 12q0-1.453-0.539-2.719t-1.5-2.227-2.227-1.5-2.719-0.539q0.609-0.469 1.383-0.75t1.617-0.281q1.359 0 2.508 0.68t1.828 1.828 0.68 2.508q0 0.844-0.281 1.617t-0.75 1.383z"></path>
</symbol>
<symbol id="icon-local_fire_department" viewBox="0 0 24 24">
<path d="M14.719 17.625q-0.234 0.234-0.586 0.422t-0.633 0.281q-0.844 0.281-1.664 0.023t-1.383-0.727q-0.094-0.094-0.070-0.188t0.117-0.141q0.891-0.281 1.406-0.891t0.703-1.313q0.141-0.656-0.047-1.266t-0.281-1.266q-0.094-0.516-0.070-1.008t0.211-0.961q0-0.094 0.094-0.094t0.141 0.047q0.281 0.609 0.727 1.078t0.938 0.891 0.891 0.914 0.492 1.148q0.047 0.281 0.047 0.516 0.047 0.703-0.234 1.406t-0.797 1.125zM17.531 9.609q-0.563-0.516-1.172-0.938t-1.172-0.984q-1.125-1.125-1.477-2.625t0.117-3.047q0.094-0.234-0.070-0.398t-0.398-0.070q-0.563 0.234-1.055 0.563t-0.961 0.656q-1.453 1.219-2.297 2.883t-0.961 3.563 0.586 3.727q0 0.094 0.023 0.188t0.023 0.188q0 0.422-0.375 0.609t-0.75-0.141q-0.094-0.141-0.141-0.234-0.75-0.938-1.008-2.133t-0.070-2.367q0.047-0.281-0.211-0.422t-0.445 0.094q-0.938 1.219-1.359 2.695t-0.328 2.977q0 0.422 0.070 0.867t0.211 0.867q0.328 1.125 0.891 2.063 0.891 1.5 2.391 2.508t3.234 1.242q1.828 0.234 3.68-0.188t3.258-1.688q1.031-0.984 1.617-2.273t0.633-2.695-0.516-2.719q-0.047-0.094-0.070-0.164t-0.070-0.164q-0.422-0.797-0.938-1.453-0.188-0.281-0.398-0.516t-0.492-0.469z"></path>
</symbol>
<symbol id="icon-pencil" viewBox="0 0 32 32">
<path d="M27 0c2.761 0 5 2.239 5 5 0 1.126-0.372 2.164-1 3l-2 2-7-7 2-2c0.836-0.628 1.874-1 3-1zM2 23l-2 9 9-2 18.5-18.5-7-7-18.5 18.5zM22.362 11.362l-14 14-1.724-1.724 14-14 1.724 1.724z"></path>
</symbol>
<symbol id="icon-user-tie" viewBox="0 0 32 32">
<path d="M10 6c0-3.314 2.686-6 6-6s6 2.686 6 6c0 3.314-2.686 6-6 6s-6-2.686-6-6zM24.002 14h-1.107l-6.222 12.633 2.327-11.633-3-3-3 3 2.327 11.633-6.222-12.633h-1.107c-3.998 0-3.998 2.687-3.998 6v10h24v-10c0-3.313 0-6-3.998-6z"></path>
</symbol>
<symbol id="icon-dropbox" viewBox="0 0 32 32">
<path d="M23 1l-7 6 9 6 7-6z"></path>
<path d="M16 7l-7-6-9 6 7 6z"></path>
<path d="M25 13l7 6-9 5-7-6z"></path>
<path d="M16 18l-9-5-7 6 9 5z"></path>
<path d="M22.755 26.424l-6.755-5.79-6.755 5.79-4.245-2.358v2.934l11 5 11-5v-2.934z"></path>
</symbol>
<symbol id="icon-linkedin" viewBox="0 0 32 32">
<path d="M29 0h-26c-1.65 0-3 1.35-3 3v26c0 1.65 1.35 3 3 3h26c1.65 0 3-1.35 3-3v-26c0-1.65-1.35-3-3-3zM12 26h-4v-14h4v14zM10 10c-1.106 0-2-0.894-2-2s0.894-2 2-2c1.106 0 2 0.894 2 2s-0.894 2-2 2zM26 26h-4v-8c0-1.106-0.894-2-2-2s-2 0.894-2 2v8h-4v-14h4v2.481c0.825-1.131 2.087-2.481 3.5-2.481 2.488 0 4.5 2.238 4.5 5v9z"></path>
</symbol>
<symbol id="icon-share" viewBox="0 0 24 24">
<path d="M18 16.078q1.219 0 2.063 0.867t0.844 2.039q0 1.219-0.867 2.086t-2.039 0.867-2.039-0.867-0.867-2.086q0-0.469 0.047-0.656l-7.078-4.125q-0.891 0.797-2.063 0.797-1.219 0-2.109-0.891t-0.891-2.109 0.891-2.109 2.109-0.891q1.172 0 2.063 0.797l7.031-4.078q-0.094-0.469-0.094-0.703 0-1.219 0.891-2.109t2.109-0.891 2.109 0.891 0.891 2.109-0.891 2.109-2.109 0.891q-1.125 0-2.063-0.844l-7.031 4.125q0.094 0.469 0.094 0.703t-0.094 0.703l7.125 4.125q0.844-0.75 1.969-0.75z"></path>
</symbol>
<symbol id="icon-cancel-circle" viewBox="0 0 32 32">
<path d="M16 0c-8.837 0-16 7.163-16 16s7.163 16 16 16 16-7.163 16-16-7.163-16-16-16zM16 29c-7.18 0-13-5.82-13-13s5.82-13 13-13 13 5.82 13 13-5.82 13-13 13z"></path>
<path d="M21 8l-5 5-5-5-3 3 5 5-5 5 3 3 5-5 5 5 3-3-5-5 5-5z"></path>
</symbol>
</defs>
</svg>
